<mxfile host="app.diagrams.net" agent="Mozilla/5.0 (Windows NT 10.0; Win64; x64; rv:133.0) Gecko/20100101 Firefox/133.0" version="25.0.3">
  <diagram name="Seite-1" id="QxpXhd5pebyE2xeUWlod">
    <mxGraphModel dx="2060" dy="1128" grid="1" gridSize="10" guides="1" tooltips="1" connect="1" arrows="1" fold="1" page="1" pageScale="1" pageWidth="827" pageHeight="1169" math="0" shadow="0">
      <root>
        <mxCell id="0" />
        <mxCell id="1" parent="0" />
        <mxCell id="JOQoY1gEjWXZOaJFryIl-5" value="AbstrakteFabrik" style="swimlane;fontStyle=3;align=center;verticalAlign=top;childLayout=stackLayout;horizontal=1;startSize=26;horizontalStack=0;resizeParent=1;resizeParentMax=0;resizeLast=0;collapsible=1;marginBottom=0;whiteSpace=wrap;html=1;points=[[0,0,0,0,0],[0,0.25,0,0,0],[0,0.5,0,0,0],[0,0.75,0,0,0],[0,1,0,0,0],[0.25,0,0,0,0],[0.25,1,0,0,0],[0.5,0,0,0,0],[0.5,1,0,0,0],[0.75,0,0,0,0],[0.75,1,0,0,0],[1,0,0,0,0],[1,0.1,0,0,0],[1,0.2,0,0,0],[1,0.25,0,0,0],[1,0.3,0,0,0],[1,0.4,0,0,0],[1,0.5,0,0,0],[1,0.6,0,0,0],[1,0.7,0,0,0],[1,0.75,0,0,0],[1,0.8,0,0,0],[1,0.9,0,0,0],[1,1,0,0,0]];" parent="1" vertex="1">
          <mxGeometry x="160" y="108" width="140" height="112" as="geometry" />
        </mxCell>
        <mxCell id="JOQoY1gEjWXZOaJFryIl-8" value="&amp;nbsp;" style="text;strokeColor=none;fillColor=none;align=left;verticalAlign=top;spacingLeft=4;spacingRight=4;overflow=hidden;rotatable=0;points=[[0,0.5],[1,0.5]];portConstraint=eastwest;whiteSpace=wrap;html=1;" parent="JOQoY1gEjWXZOaJFryIl-5" vertex="1">
          <mxGeometry y="26" width="140" height="26" as="geometry" />
        </mxCell>
        <mxCell id="JOQoY1gEjWXZOaJFryIl-9" value="" style="line;strokeWidth=1;fillColor=none;align=left;verticalAlign=middle;spacingTop=-1;spacingLeft=3;spacingRight=3;rotatable=0;labelPosition=right;points=[];portConstraint=eastwest;strokeColor=inherit;" parent="JOQoY1gEjWXZOaJFryIl-5" vertex="1">
          <mxGeometry y="52" width="140" height="8" as="geometry" />
        </mxCell>
        <mxCell id="JOQoY1gEjWXZOaJFryIl-10" value="+ erzeugeProduktA()" style="text;strokeColor=none;fillColor=none;align=left;verticalAlign=top;spacingLeft=4;spacingRight=4;overflow=hidden;rotatable=0;points=[[0,0.5],[1,0.5]];portConstraint=eastwest;whiteSpace=wrap;html=1;fontStyle=2" parent="JOQoY1gEjWXZOaJFryIl-5" vertex="1">
          <mxGeometry y="60" width="140" height="26" as="geometry" />
        </mxCell>
        <mxCell id="JOQoY1gEjWXZOaJFryIl-11" value="+ erzeugeProduktB()" style="text;strokeColor=none;fillColor=none;align=left;verticalAlign=top;spacingLeft=4;spacingRight=4;overflow=hidden;rotatable=0;points=[[0,0.5],[1,0.5]];portConstraint=eastwest;whiteSpace=wrap;html=1;fontStyle=2" parent="JOQoY1gEjWXZOaJFryIl-5" vertex="1">
          <mxGeometry y="86" width="140" height="26" as="geometry" />
        </mxCell>
        <mxCell id="JOQoY1gEjWXZOaJFryIl-12" value="KonkreteFabrik1" style="swimlane;fontStyle=1;align=center;verticalAlign=top;childLayout=stackLayout;horizontal=1;startSize=26;horizontalStack=0;resizeParent=1;resizeParentMax=0;resizeLast=0;collapsible=1;marginBottom=0;whiteSpace=wrap;html=1;" parent="1" vertex="1">
          <mxGeometry x="80" y="270" width="140" height="138" as="geometry" />
        </mxCell>
        <mxCell id="JOQoY1gEjWXZOaJFryIl-13" value="&amp;nbsp;" style="text;strokeColor=none;fillColor=none;align=left;verticalAlign=top;spacingLeft=4;spacingRight=4;overflow=hidden;rotatable=0;points=[[0,0.5],[1,0.5]];portConstraint=eastwest;whiteSpace=wrap;html=1;" parent="JOQoY1gEjWXZOaJFryIl-12" vertex="1">
          <mxGeometry y="26" width="140" height="26" as="geometry" />
        </mxCell>
        <mxCell id="JOQoY1gEjWXZOaJFryIl-14" value="" style="line;strokeWidth=1;fillColor=none;align=left;verticalAlign=middle;spacingTop=-1;spacingLeft=3;spacingRight=3;rotatable=0;labelPosition=right;points=[];portConstraint=eastwest;strokeColor=inherit;" parent="JOQoY1gEjWXZOaJFryIl-12" vertex="1">
          <mxGeometry y="52" width="140" height="8" as="geometry" />
        </mxCell>
        <mxCell id="JOQoY1gEjWXZOaJFryIl-15" value="+ erzeugeProduktA()" style="text;strokeColor=none;fillColor=none;align=left;verticalAlign=top;spacingLeft=4;spacingRight=4;overflow=hidden;rotatable=0;points=[[0,0.5],[1,0.5]];portConstraint=eastwest;whiteSpace=wrap;html=1;" parent="JOQoY1gEjWXZOaJFryIl-12" vertex="1">
          <mxGeometry y="60" width="140" height="26" as="geometry" />
        </mxCell>
        <mxCell id="JOQoY1gEjWXZOaJFryIl-22" value="+ erzeugeProduktB()" style="text;strokeColor=none;fillColor=none;align=left;verticalAlign=top;spacingLeft=4;spacingRight=4;overflow=hidden;rotatable=0;points=[[0,0.5],[1,0.5]];portConstraint=eastwest;whiteSpace=wrap;html=1;" parent="JOQoY1gEjWXZOaJFryIl-12" vertex="1">
          <mxGeometry y="86" width="140" height="26" as="geometry" />
        </mxCell>
        <mxCell id="JOQoY1gEjWXZOaJFryIl-16" value="..." style="text;strokeColor=none;fillColor=none;align=left;verticalAlign=top;spacingLeft=4;spacingRight=4;overflow=hidden;rotatable=0;points=[[0,0.5],[1,0.5]];portConstraint=eastwest;whiteSpace=wrap;html=1;" parent="JOQoY1gEjWXZOaJFryIl-12" vertex="1">
          <mxGeometry y="112" width="140" height="26" as="geometry" />
        </mxCell>
        <mxCell id="JOQoY1gEjWXZOaJFryIl-17" value="KonkreteFabrik2" style="swimlane;fontStyle=1;align=center;verticalAlign=top;childLayout=stackLayout;horizontal=1;startSize=26;horizontalStack=0;resizeParent=1;resizeParentMax=0;resizeLast=0;collapsible=1;marginBottom=0;whiteSpace=wrap;html=1;" parent="1" vertex="1">
          <mxGeometry x="240" y="270" width="140" height="138" as="geometry" />
        </mxCell>
        <mxCell id="JOQoY1gEjWXZOaJFryIl-18" value="&amp;nbsp;" style="text;strokeColor=none;fillColor=none;align=left;verticalAlign=top;spacingLeft=4;spacingRight=4;overflow=hidden;rotatable=0;points=[[0,0.5],[1,0.5]];portConstraint=eastwest;whiteSpace=wrap;html=1;" parent="JOQoY1gEjWXZOaJFryIl-17" vertex="1">
          <mxGeometry y="26" width="140" height="26" as="geometry" />
        </mxCell>
        <mxCell id="JOQoY1gEjWXZOaJFryIl-19" value="" style="line;strokeWidth=1;fillColor=none;align=left;verticalAlign=middle;spacingTop=-1;spacingLeft=3;spacingRight=3;rotatable=0;labelPosition=right;points=[];portConstraint=eastwest;strokeColor=inherit;" parent="JOQoY1gEjWXZOaJFryIl-17" vertex="1">
          <mxGeometry y="52" width="140" height="8" as="geometry" />
        </mxCell>
        <mxCell id="JOQoY1gEjWXZOaJFryIl-20" value="+ erzeugeProduktA()" style="text;strokeColor=none;fillColor=none;align=left;verticalAlign=top;spacingLeft=4;spacingRight=4;overflow=hidden;rotatable=0;points=[[0,0.5],[1,0.5]];portConstraint=eastwest;whiteSpace=wrap;html=1;" parent="JOQoY1gEjWXZOaJFryIl-17" vertex="1">
          <mxGeometry y="60" width="140" height="26" as="geometry" />
        </mxCell>
        <mxCell id="JOQoY1gEjWXZOaJFryIl-21" value="+ erzeugeProduktB()" style="text;strokeColor=none;fillColor=none;align=left;verticalAlign=top;spacingLeft=4;spacingRight=4;overflow=hidden;rotatable=0;points=[[0,0.5],[1,0.5]];portConstraint=eastwest;whiteSpace=wrap;html=1;" parent="JOQoY1gEjWXZOaJFryIl-17" vertex="1">
          <mxGeometry y="86" width="140" height="26" as="geometry" />
        </mxCell>
        <mxCell id="JOQoY1gEjWXZOaJFryIl-23" value="..." style="text;strokeColor=none;fillColor=none;align=left;verticalAlign=top;spacingLeft=4;spacingRight=4;overflow=hidden;rotatable=0;points=[[0,0.5],[1,0.5]];portConstraint=eastwest;whiteSpace=wrap;html=1;" parent="JOQoY1gEjWXZOaJFryIl-17" vertex="1">
          <mxGeometry y="112" width="140" height="26" as="geometry" />
        </mxCell>
        <mxCell id="JOQoY1gEjWXZOaJFryIl-24" value="AbstraktesProduktB" style="rounded=0;whiteSpace=wrap;html=1;fontStyle=3;points=[[0,0,0,0,0],[0,0.25,0,0,0],[0,0.5,0,0,0],[0,0.75,0,0,0],[0,1,0,0,0],[0.1,0,0,0,0],[0.2,0,0,0,0],[0.25,0,0,0,0],[0.25,1,0,0,0],[0.3,0,0,0,0],[0.4,0,0,0,0],[0.5,0,0,0,0],[0.5,1,0,0,0],[0.6,0,0,0,0],[0.7,0,0,0,0],[0.75,0,0,0,0],[0.75,1,0,0,0],[0.8,0,0,0,0],[0.9,0,0,0,0],[1,0,0,0,0],[1,0.25,0,0,0],[1,0.5,0,0,0],[1,0.75,0,0,0],[1,1,0,0,0]];" parent="1" vertex="1">
          <mxGeometry x="470" y="320" width="130" height="30" as="geometry" />
        </mxCell>
        <mxCell id="JOQoY1gEjWXZOaJFryIl-25" value="AbstraktesProduktA" style="rounded=0;whiteSpace=wrap;html=1;fontStyle=3" parent="1" vertex="1">
          <mxGeometry x="420" y="160" width="130" height="30" as="geometry" />
        </mxCell>
        <mxCell id="JOQoY1gEjWXZOaJFryIl-27" value="ProduktA1" style="rounded=0;whiteSpace=wrap;html=1;fontStyle=1" parent="1" vertex="1">
          <mxGeometry x="400" y="230" width="80" height="30" as="geometry" />
        </mxCell>
        <mxCell id="JOQoY1gEjWXZOaJFryIl-28" value="ProduktA2" style="rounded=0;whiteSpace=wrap;html=1;fontStyle=1" parent="1" vertex="1">
          <mxGeometry x="490" y="230" width="80" height="30" as="geometry" />
        </mxCell>
        <mxCell id="JOQoY1gEjWXZOaJFryIl-29" value="ProduktB1" style="rounded=0;whiteSpace=wrap;html=1;fontStyle=1" parent="1" vertex="1">
          <mxGeometry x="450" y="390" width="80" height="30" as="geometry" />
        </mxCell>
        <mxCell id="JOQoY1gEjWXZOaJFryIl-30" value="&lt;div&gt;ProduktB2&lt;/div&gt;" style="rounded=0;whiteSpace=wrap;html=1;fontStyle=1" parent="1" vertex="1">
          <mxGeometry x="540" y="390" width="80" height="30" as="geometry" />
        </mxCell>
        <mxCell id="JOQoY1gEjWXZOaJFryIl-31" value="" style="endArrow=block;html=1;rounded=0;endFill=0;endSize=9;" parent="1" source="JOQoY1gEjWXZOaJFryIl-12" target="JOQoY1gEjWXZOaJFryIl-5" edge="1">
          <mxGeometry width="50" height="50" relative="1" as="geometry">
            <mxPoint x="-40" y="450" as="sourcePoint" />
            <mxPoint x="10" y="400" as="targetPoint" />
          </mxGeometry>
        </mxCell>
        <mxCell id="JOQoY1gEjWXZOaJFryIl-33" value="" style="endArrow=block;html=1;rounded=0;endFill=0;endSize=9;" parent="1" source="JOQoY1gEjWXZOaJFryIl-17" target="JOQoY1gEjWXZOaJFryIl-5" edge="1">
          <mxGeometry width="50" height="50" relative="1" as="geometry">
            <mxPoint x="206" y="280" as="sourcePoint" />
            <mxPoint x="231" y="232" as="targetPoint" />
          </mxGeometry>
        </mxCell>
        <mxCell id="JOQoY1gEjWXZOaJFryIl-35" value="" style="endArrow=block;html=1;rounded=0;endFill=0;endSize=9;" parent="1" source="JOQoY1gEjWXZOaJFryIl-27" target="JOQoY1gEjWXZOaJFryIl-25" edge="1">
          <mxGeometry width="50" height="50" relative="1" as="geometry">
            <mxPoint x="210" y="598" as="sourcePoint" />
            <mxPoint x="235" y="550" as="targetPoint" />
          </mxGeometry>
        </mxCell>
        <mxCell id="JOQoY1gEjWXZOaJFryIl-36" value="" style="endArrow=block;html=1;rounded=0;endFill=0;endSize=9;" parent="1" source="JOQoY1gEjWXZOaJFryIl-28" target="JOQoY1gEjWXZOaJFryIl-25" edge="1">
          <mxGeometry width="50" height="50" relative="1" as="geometry">
            <mxPoint x="220" y="608" as="sourcePoint" />
            <mxPoint x="245" y="560" as="targetPoint" />
          </mxGeometry>
        </mxCell>
        <mxCell id="JOQoY1gEjWXZOaJFryIl-37" value="" style="endArrow=block;html=1;rounded=0;endFill=0;endSize=9;" parent="1" source="JOQoY1gEjWXZOaJFryIl-30" target="JOQoY1gEjWXZOaJFryIl-24" edge="1">
          <mxGeometry width="50" height="50" relative="1" as="geometry">
            <mxPoint x="240" y="578" as="sourcePoint" />
            <mxPoint x="265" y="530" as="targetPoint" />
          </mxGeometry>
        </mxCell>
        <mxCell id="JOQoY1gEjWXZOaJFryIl-38" value="" style="endArrow=block;html=1;rounded=0;endFill=0;endSize=9;" parent="1" source="JOQoY1gEjWXZOaJFryIl-29" target="JOQoY1gEjWXZOaJFryIl-24" edge="1">
          <mxGeometry width="50" height="50" relative="1" as="geometry">
            <mxPoint x="250" y="588" as="sourcePoint" />
            <mxPoint x="275" y="540" as="targetPoint" />
          </mxGeometry>
        </mxCell>
        <mxCell id="JOQoY1gEjWXZOaJFryIl-39" value="" style="endArrow=none;html=1;rounded=0;edgeStyle=orthogonalEdgeStyle;" parent="1" source="JOQoY1gEjWXZOaJFryIl-29" target="JOQoY1gEjWXZOaJFryIl-12" edge="1">
          <mxGeometry width="50" height="50" relative="1" as="geometry">
            <mxPoint x="170" y="560" as="sourcePoint" />
            <mxPoint x="220" y="510" as="targetPoint" />
            <Array as="points">
              <mxPoint x="490" y="480" />
              <mxPoint x="160" y="480" />
            </Array>
          </mxGeometry>
        </mxCell>
        <mxCell id="JOQoY1gEjWXZOaJFryIl-40" value="" style="endArrow=none;html=1;rounded=0;edgeStyle=orthogonalEdgeStyle;" parent="1" source="JOQoY1gEjWXZOaJFryIl-27" target="JOQoY1gEjWXZOaJFryIl-12" edge="1">
          <mxGeometry width="50" height="50" relative="1" as="geometry">
            <mxPoint x="110" y="570" as="sourcePoint" />
            <mxPoint x="160" y="520" as="targetPoint" />
            <Array as="points">
              <mxPoint x="430" y="440" />
              <mxPoint x="200" y="440" />
            </Array>
          </mxGeometry>
        </mxCell>
        <mxCell id="JOQoY1gEjWXZOaJFryIl-42" value="" style="endArrow=none;html=1;rounded=0;edgeStyle=orthogonalEdgeStyle;" parent="1" source="JOQoY1gEjWXZOaJFryIl-28" target="JOQoY1gEjWXZOaJFryIl-17" edge="1">
          <mxGeometry width="50" height="50" relative="1" as="geometry">
            <mxPoint x="130" y="590" as="sourcePoint" />
            <mxPoint x="180" y="540" as="targetPoint" />
            <Array as="points">
              <mxPoint x="530" y="290" />
            </Array>
          </mxGeometry>
        </mxCell>
        <mxCell id="JOQoY1gEjWXZOaJFryIl-43" value="" style="endArrow=none;html=1;rounded=0;edgeStyle=orthogonalEdgeStyle;" parent="1" source="JOQoY1gEjWXZOaJFryIl-30" target="JOQoY1gEjWXZOaJFryIl-17" edge="1">
          <mxGeometry width="50" height="50" relative="1" as="geometry">
            <mxPoint x="140" y="600" as="sourcePoint" />
            <mxPoint x="190" y="550" as="targetPoint" />
            <Array as="points">
              <mxPoint x="580" y="460" />
              <mxPoint x="340" y="460" />
            </Array>
          </mxGeometry>
        </mxCell>
        <mxCell id="JOQoY1gEjWXZOaJFryIl-44" value="Dienstnutzer" style="text;html=1;align=center;verticalAlign=middle;whiteSpace=wrap;rounded=0;fontColor=#006666;fontStyle=0" parent="1" vertex="1">
          <mxGeometry x="540" y="108" width="80" height="30" as="geometry" />
        </mxCell>
        <mxCell id="JOQoY1gEjWXZOaJFryIl-45" value="" style="endArrow=open;html=1;rounded=0;endFill=0;strokeColor=#006666;exitX=0;exitY=0.5;exitDx=0;exitDy=0;" parent="1" source="JOQoY1gEjWXZOaJFryIl-44" edge="1">
          <mxGeometry width="50" height="50" relative="1" as="geometry">
            <mxPoint x="510" y="123" as="sourcePoint" />
            <mxPoint x="300" y="123" as="targetPoint" />
          </mxGeometry>
        </mxCell>
        <mxCell id="JOQoY1gEjWXZOaJFryIl-46" value="" style="endArrow=open;html=1;rounded=0;endFill=0;strokeColor=#006666;entryX=0.8;entryY=0;entryDx=0;entryDy=0;entryPerimeter=0;" parent="1" source="JOQoY1gEjWXZOaJFryIl-44" target="JOQoY1gEjWXZOaJFryIl-24" edge="1">
          <mxGeometry width="50" height="50" relative="1" as="geometry">
            <mxPoint x="580" y="107" as="sourcePoint" />
            <mxPoint x="290" y="120" as="targetPoint" />
          </mxGeometry>
        </mxCell>
        <mxCell id="JOQoY1gEjWXZOaJFryIl-47" value="" style="endArrow=open;html=1;rounded=0;endFill=0;strokeColor=#006666;entryX=1;entryY=0;entryDx=0;entryDy=0;" parent="1" source="JOQoY1gEjWXZOaJFryIl-44" target="JOQoY1gEjWXZOaJFryIl-25" edge="1">
          <mxGeometry width="50" height="50" relative="1" as="geometry">
            <mxPoint x="590" y="117" as="sourcePoint" />
            <mxPoint x="300" y="130" as="targetPoint" />
          </mxGeometry>
        </mxCell>
      </root>
    </mxGraphModel>
  </diagram>
</mxfile>
